<svg width="241" height="30" viewBox="0 0 241 30" fill="none" xmlns="http://www.w3.org/2000/svg">
<rect width="236" height="29.9822" transform="translate(5)" fill="white"/>
<line x1="2.5" y1="29.9821" x2="2.5" y2="-1.33514e-05" stroke="#55BDB3" stroke-width="5"/>
<path d="M15.304 28V5.50403H18.376L27.496 20.096H25.736L34.824 5.50403H37.896V28H33.576V12.96L34.408 13.216L28.072 23.392H25.128L18.792 13.216L19.656 12.96V28H15.304ZM49.3075 28.32C47.7502 28.32 46.3422 27.968 45.0835 27.264C43.8462 26.5387 42.8542 25.568 42.1075 24.352C41.3822 23.1147 41.0195 21.7387 41.0195 20.224C41.0195 18.7094 41.3822 17.3547 42.1075 16.16C42.8328 14.944 43.8248 13.984 45.0835 13.28C46.3422 12.5547 47.7395 12.192 49.2755 12.192C50.8542 12.192 52.2622 12.5547 53.4995 13.28C54.7582 13.984 55.7502 14.944 56.4755 16.16C57.2008 17.3547 57.5635 18.7094 57.5635 20.224C57.5635 21.7387 57.2008 23.1147 56.4755 24.352C55.7502 25.568 54.7582 26.5387 53.4995 27.264C52.2622 27.968 50.8648 28.32 49.3075 28.32ZM49.2755 24.416C50.0648 24.416 50.7582 24.2454 51.3555 23.904C51.9742 23.5414 52.4435 23.0507 52.7635 22.432C53.1048 21.792 53.2755 21.0667 53.2755 20.256C53.2755 19.4454 53.1048 18.7307 52.7635 18.112C52.4222 17.4934 51.9528 17.0134 51.3555 16.672C50.7582 16.3094 50.0648 16.128 49.2755 16.128C48.5075 16.128 47.8248 16.3094 47.2275 16.672C46.6302 17.0134 46.1608 17.4934 45.8195 18.112C45.4782 18.7307 45.3075 19.4454 45.3075 20.256C45.3075 21.0667 45.4782 21.792 45.8195 22.432C46.1608 23.0507 46.6302 23.5414 47.2275 23.904C47.8248 24.2454 48.5075 24.416 49.2755 24.416ZM67.5263 28.32C65.9689 28.32 64.5609 27.968 63.3023 27.264C62.0649 26.5387 61.0729 25.568 60.3263 24.352C59.6009 23.1147 59.2383 21.7387 59.2383 20.224C59.2383 18.7094 59.6009 17.3547 60.3263 16.16C61.0516 14.944 62.0436 13.984 63.3023 13.28C64.5609 12.5547 65.9583 12.192 67.4943 12.192C69.0729 12.192 70.4809 12.5547 71.7183 13.28C72.9769 13.984 73.9689 14.944 74.6943 16.16C75.4196 17.3547 75.7823 18.7094 75.7823 20.224C75.7823 21.7387 75.4196 23.1147 74.6943 24.352C73.9689 25.568 72.9769 26.5387 71.7183 27.264C70.4809 27.968 69.0836 28.32 67.5263 28.32ZM67.4943 24.416C68.2836 24.416 68.9769 24.2454 69.5743 23.904C70.1929 23.5414 70.6623 23.0507 70.9823 22.432C71.3236 21.792 71.4943 21.0667 71.4943 20.256C71.4943 19.4454 71.3236 18.7307 70.9823 18.112C70.6409 17.4934 70.1716 17.0134 69.5743 16.672C68.9769 16.3094 68.2836 16.128 67.4943 16.128C66.7263 16.128 66.0436 16.3094 65.4463 16.672C64.8489 17.0134 64.3796 17.4934 64.0383 18.112C63.6969 18.7307 63.5263 19.4454 63.5263 20.256C63.5263 21.0667 63.6969 21.792 64.0383 22.432C64.3796 23.0507 64.8489 23.5414 65.4463 23.904C66.0436 24.2454 66.7263 24.416 67.4943 24.416ZM85.009 28.32C83.5797 28.32 82.2997 27.968 81.169 27.264C80.0383 26.56 79.1423 25.6 78.481 24.384C77.841 23.168 77.521 21.8027 77.521 20.288C77.521 18.752 77.841 17.376 78.481 16.16C79.1423 14.944 80.0277 13.984 81.137 13.28C82.2677 12.576 83.5583 12.224 85.009 12.224C86.1183 12.224 87.1103 12.448 87.985 12.896C88.881 13.344 89.5957 13.9734 90.129 14.784C90.6837 15.5734 90.9823 16.4694 91.025 17.472V22.976C90.9823 23.9787 90.6943 24.8854 90.161 25.696C89.6277 26.5067 88.913 27.1467 88.017 27.616C87.121 28.0854 86.1183 28.32 85.009 28.32ZM85.713 24.448C86.5023 24.448 87.185 24.2774 87.761 23.936C88.3583 23.5734 88.817 23.0827 89.137 22.464C89.4783 21.824 89.649 21.088 89.649 20.256C89.649 19.4454 89.4783 18.7307 89.137 18.112C88.817 17.472 88.3583 16.9814 87.761 16.64C87.185 16.2774 86.513 16.096 85.745 16.096C84.9557 16.096 84.2623 16.2774 83.665 16.64C83.089 17.0027 82.6303 17.4934 82.289 18.112C81.969 18.7307 81.809 19.4454 81.809 20.256C81.809 21.088 81.969 21.824 82.289 22.464C82.6303 23.0827 83.0997 23.5734 83.697 23.936C84.2943 24.2774 84.9663 24.448 85.713 24.448ZM93.585 28H89.425V23.84L90.097 20.064L89.393 16.352V4.86403H93.585V28ZM107.565 28.32C106.2 28.32 104.995 28.064 103.949 27.552C102.925 27.0187 102.072 26.304 101.389 25.408L104.333 22.592C104.717 23.1467 105.176 23.5734 105.709 23.872C106.264 24.1494 106.872 24.288 107.533 24.288C108.195 24.288 108.771 24.1494 109.261 23.872C109.773 23.5947 110.157 23.1894 110.413 22.656C110.691 22.1227 110.829 21.472 110.829 20.704V5.50403H115.213V20.448C115.213 22.0267 114.893 23.4134 114.253 24.608C113.635 25.7814 112.749 26.6987 111.597 27.36C110.467 28 109.123 28.32 107.565 28.32ZM126.308 28.32C124.75 28.32 123.342 27.968 122.084 27.264C120.846 26.5387 119.854 25.568 119.108 24.352C118.382 23.1147 118.02 21.7387 118.02 20.224C118.02 18.7094 118.382 17.3547 119.108 16.16C119.833 14.944 120.825 13.984 122.084 13.28C123.342 12.5547 124.74 12.192 126.276 12.192C127.854 12.192 129.262 12.5547 130.5 13.28C131.758 13.984 132.75 14.944 133.476 16.16C134.201 17.3547 134.564 18.7094 134.564 20.224C134.564 21.7387 134.201 23.1147 133.476 24.352C132.75 25.568 131.758 26.5387 130.5 27.264C129.262 27.968 127.865 28.32 126.308 28.32ZM126.276 24.416C127.065 24.416 127.758 24.2454 128.356 23.904C128.974 23.5414 129.444 23.0507 129.764 22.432C130.105 21.792 130.276 21.0667 130.276 20.256C130.276 19.4454 130.105 18.7307 129.764 18.112C129.422 17.4934 128.953 17.0134 128.356 16.672C127.758 16.3094 127.065 16.128 126.276 16.128C125.508 16.128 124.825 16.3094 124.228 16.672C123.63 17.0134 123.161 17.4934 122.82 18.112C122.478 18.7307 122.308 19.4454 122.308 20.256C122.308 21.0667 122.478 21.792 122.82 22.432C123.161 23.0507 123.63 23.5414 124.228 23.904C124.825 24.2454 125.508 24.416 126.276 24.416ZM143.854 28.32C142.489 28.32 141.273 28.032 140.206 27.456C139.161 26.88 138.34 26.08 137.742 25.056C137.145 24.032 136.846 22.848 136.846 21.504V12.544H141.07V21.408C141.07 22.048 141.177 22.6027 141.39 23.072C141.604 23.52 141.924 23.8614 142.35 24.096C142.777 24.3307 143.278 24.448 143.854 24.448C144.729 24.448 145.412 24.1814 145.902 23.648C146.393 23.1147 146.638 22.368 146.638 21.408V12.544H150.83V21.504C150.83 22.8694 150.532 24.064 149.934 25.088C149.358 26.112 148.537 26.912 147.47 27.488C146.425 28.0427 145.22 28.32 143.854 28.32ZM154.169 28V12.544H158.361V28H154.169ZM158.361 19.456L156.729 18.368C156.921 16.4694 157.475 14.976 158.393 13.888C159.31 12.7787 160.633 12.224 162.361 12.224C163.107 12.224 163.779 12.352 164.377 12.608C164.974 12.8427 165.518 13.2374 166.009 13.792L163.385 16.8C163.15 16.544 162.862 16.352 162.521 16.224C162.201 16.096 161.827 16.032 161.401 16.032C160.505 16.032 159.769 16.32 159.193 16.896C158.638 17.4507 158.361 18.304 158.361 19.456ZM177.819 28V19.136C177.819 18.2187 177.531 17.472 176.955 16.896C176.379 16.32 175.632 16.032 174.715 16.032C174.117 16.032 173.584 16.16 173.115 16.416C172.645 16.672 172.272 17.0347 171.995 17.504C171.739 17.9734 171.611 18.5174 171.611 19.136L169.979 18.304C169.979 17.088 170.235 16.032 170.747 15.136C171.28 14.2187 172.005 13.504 172.923 12.992C173.861 12.48 174.917 12.224 176.091 12.224C177.221 12.224 178.235 12.512 179.131 13.088C180.027 13.6427 180.731 14.3787 181.243 15.296C181.755 16.192 182.01 17.1627 182.01 18.208V28H177.819ZM167.419 28V12.544H171.611V28H167.419ZM191.851 28.32C190.443 28.32 189.174 27.968 188.043 27.264C186.913 26.56 186.027 25.6 185.387 24.384C184.747 23.168 184.427 21.8027 184.427 20.288C184.427 18.752 184.747 17.376 185.387 16.16C186.027 14.944 186.913 13.984 188.043 13.28C189.174 12.576 190.443 12.224 191.851 12.224C192.961 12.224 193.953 12.448 194.827 12.896C195.702 13.344 196.395 13.9734 196.907 14.784C197.441 15.5734 197.729 16.4694 197.771 17.472V23.04C197.729 24.064 197.441 24.9707 196.907 25.76C196.395 26.5494 195.702 27.1787 194.827 27.648C193.953 28.096 192.961 28.32 191.851 28.32ZM192.619 24.448C193.793 24.448 194.742 24.064 195.467 23.296C196.193 22.5067 196.555 21.4934 196.555 20.256C196.555 19.4454 196.385 18.7307 196.043 18.112C195.723 17.472 195.265 16.9814 194.667 16.64C194.091 16.2774 193.409 16.096 192.619 16.096C191.851 16.096 191.169 16.2774 190.571 16.64C189.995 16.9814 189.537 17.472 189.195 18.112C188.875 18.7307 188.715 19.4454 188.715 20.256C188.715 21.088 188.875 21.824 189.195 22.464C189.537 23.0827 189.995 23.5734 190.571 23.936C191.169 24.2774 191.851 24.448 192.619 24.448ZM196.331 28V23.84L197.003 20.064L196.331 16.352V12.544H200.491V28H196.331ZM204.2 28V4.86403H208.392V28H204.2Z" fill="black"/>
</svg>

